<svg id="Calque_1" data-name="Calque 1" xmlns="http://www.w3.org/2000/svg" viewBox="0 0 128.62 63.98"><defs><style>.cls-1{fill:none;stroke:#c6368c;stroke-miterlimit:10;stroke-width:0.75px;}.cls-2{fill:#fff;}.cls-3{fill:#c6368c;}</style></defs><line class="cls-1" y1="46.76" x2="39.47" y2="46.76"/><path class="cls-2" d="M141.59,176.28h9.27v3.47h-5.74v3.39h5.74v3.41h-5.74V195h-3.53Z" transform="translate(-78.87 -148.2)"/><path class="cls-2" d="M155.83,176.28h3.46l4.33,13,4.37-13h3.46L174.59,195h-3.44l-2-11.8-4,11.8h-3.13l-3.94-11.8L156.06,195H152.6Z" transform="translate(-78.87 -148.2)"/><path class="cls-2" d="M177.42,195V176.28h2.93a15.22,15.22,0,0,1,3.74.33,5,5,0,0,1,2.67,1.65,4.38,4.38,0,0,1,1,2.85,4.13,4.13,0,0,1-.45,1.93,4.83,4.83,0,0,1-1.47,1.63,5.83,5.83,0,0,1,2.49,2,5,5,0,0,1,.79,2.84,5.38,5.38,0,0,1-2.91,4.81,8.19,8.19,0,0,1-3.55.64ZM181,179.67v3.94h.78a2.85,2.85,0,0,0,1.93-.55,1.86,1.86,0,0,0,.63-1.48,1.72,1.72,0,0,0-.6-1.39,2.69,2.69,0,0,0-1.82-.52Zm0,7.11v4.79h.89a5.55,5.55,0,0,0,3-.56,1.89,1.89,0,0,0,.77-1.63,2.27,2.27,0,0,0-.91-1.9,4.94,4.94,0,0,0-3-.7Z" transform="translate(-78.87 -148.2)"/><path class="cls-2" d="M192.51,176.28h4.21a13.9,13.9,0,0,1,6.05,1,7.86,7.86,0,0,1,3.26,3.28,11.57,11.57,0,0,1,.57,9.28,8.36,8.36,0,0,1-2,3,6.87,6.87,0,0,1-2.73,1.65,19.24,19.24,0,0,1-5.1.46h-4.28Zm3.53,3.43v11.78h1.65a8.15,8.15,0,0,0,3.54-.56,4.2,4.2,0,0,0,1.79-1.88,6.82,6.82,0,0,0,.7-3.25,6.21,6.21,0,0,0-1.66-4.62q-1.5-1.47-4.81-1.47Z" transform="translate(-78.87 -148.2)"/><path class="cls-3" d="M124,197.54c1.53-8.73,5.39-17.22,12.16-23.13,6.35-5.54,14.94-8.48,23.31-6.7a22.54,22.54,0,0,1,11.85,6.57c-.24-.26,0-2.12,0-2.5V170c0-.14.06-.64,0-.73-5.71-6.09-14.58-8.32-22.62-6.44-8.47,2-15.49,8-19.73,15.47a43.86,43.86,0,0,0-5,14.23c-.28,1.62.29,3.39,0,5Z" transform="translate(-78.87 -148.2)"/><path class="cls-3" d="M133.77,158.25a3.42,3.42,0,0,0,4.51,1.41,3.94,3.94,0,0,0,1.87-2,3.79,3.79,0,0,0,.27-1.14c.08-1.12,0-2.27,0-3.4a4.65,4.65,0,0,0-.74-2.77,4.79,4.79,0,0,0-2.31-1.75,6.65,6.65,0,0,0-6.13.91,3.45,3.45,0,0,0-1.33,2.89c0,1.14-.07,2.3,0,3.44a2.17,2.17,0,0,0,.59,1.39,3.2,3.2,0,0,1,0-.55c0-.44,0-.88,0-1.32s0-.89,0-1.33c0-.1,0-.48,0-.55A2.17,2.17,0,0,1,130,152v3.14c0,.34.06-.11.07-.15a3.1,3.1,0,0,1,.13-.4,3,3,0,0,1,.41-.69,4.43,4.43,0,0,1,1.33-1.11,6.93,6.93,0,0,1,3.59-.85,5.55,5.55,0,0,1,3.37,1.19,4.13,4.13,0,0,1,1.56,2.88V152.6a3.85,3.85,0,0,1-2.81,3.55,3.37,3.37,0,0,1-3.84-1.65,3.17,3.17,0,0,1,0,.55v2.65a1.68,1.68,0,0,0,0,.55Z" transform="translate(-78.87 -148.2)"/><path class="cls-3" d="M139.76,160.17A20.9,20.9,0,0,1,110,164.42a7.85,7.85,0,0,1,0,1.87c0,.27-.19,1.72,0,1.88a20.9,20.9,0,0,0,29.74-4.25c.21-.3,0-1.51,0-1.88s-.23-1.57,0-1.87Z" transform="translate(-78.87 -148.2)"/><path class="cls-2" d="M83.36,207.3h-.47a.91.91,0,0,1-1.07-.84,2.16,2.16,0,0,0-.08-.67c-.13,0-.27.12-.41.38s-.24.37-.31.37l-1.11-.27c-.73-.19-1.07-.35-1-.5a3.78,3.78,0,0,1,.44-1.1,1.92,1.92,0,0,1,.8-.84,7.74,7.74,0,0,1,.88-.31,1.22,1.22,0,0,0,.39-.15l-.08-.55.65-.89h0l.45,3.91c0,.32.11.48.41.48h.52Zm-1.48-6.43-.47.76L80.33,201l-.34.61-1.11-.67.46-.75,1,.62.36-.57Zm-.17,4.59v-.07l-.27-1.72s-.17.2-.42.62l-.62.21a2.34,2.34,0,0,0-.85.45,2.33,2.33,0,0,0,.78.41,3.11,3.11,0,0,0,.88.16l.25,0Z" transform="translate(-78.87 -148.2)"/><path class="cls-2" d="M87.22,207.3h-.74a.1.1,0,0,1-.11-.07.53.53,0,0,0-.06-.13l-.1-.21c0-.11-.08-.17-.12-.17s-.11.1-.23.29a1.63,1.63,0,0,1-.21.29H83.14v-1h3l-.18-1.4a11.11,11.11,0,0,1,.7-1.05s.07.72.14,2.16c0,.2.06.29.16.29h.31ZM87,209l-.45.8-1.11-.64-.35.59L84,209.11l.49-.83,1.15.72.34-.61Z" transform="translate(-78.87 -148.2)"/><path class="cls-2" d="M92.81,207.3H92l-.3.64-2.45-1.34c-.1,0-.22.12-.33.35s-.25.35-.4.35H86.88v-1h1.75q.32,0,.48-.45a4.88,4.88,0,0,1,.32-.75,5.47,5.47,0,0,1,.89-.64,2.16,2.16,0,0,1,1-.36c.16,0,.25.08.25.23a2,2,0,0,1,0,.41,0,0,0,0,0,0,0c.26,1,.58,1.51,1,1.58h.27Zm-1.35-1c-.07-.29-.12-.5-.16-.65-.09-.35-.25-.53-.47-.53a1.18,1.18,0,0,0-1.07.54l.67.39a2.18,2.18,0,0,0,.73.31Z" transform="translate(-78.87 -148.2)"/><path class="cls-2" d="M96.41,207.3H95.9a.68.68,0,0,1-.69-.59c0,.13-.15.33-.28.59H92.57v-1h2.29c.14,0,.24-.47.31-1.41a1.79,1.79,0,0,1,.51-.6c.25-.23.37-.33.37-.3v.33a2.7,2.7,0,0,1-.14.69,5.87,5.87,0,0,0-.26,1q0,.27.39.27h.37Zm-.33-5.44-.47.86-1.13-.67.44-.8Z" transform="translate(-78.87 -148.2)"/><path class="cls-2" d="M99.76,207.3H99.2a.67.67,0,0,1-.39-.13.65.65,0,0,1-.16-.24.84.84,0,0,0-.13-.21s-.11.1-.23.29-.2.29-.25.29h-2v-1h2.54l0-1.28c.22-.29.51-.64.88-1.06a.2.2,0,0,1,0,.11,10.67,10.67,0,0,1-.22,1.83c0,.18,0,.28,0,.29s.07.11.19.11h.3Zm-.38-5.19-.46.77-1.09-.65-.34.59-1.11-.65.46-.8,1.06.67.36-.6Z" transform="translate(-78.87 -148.2)"/><path class="cls-2" d="M102.65,207.3h-.9l-.08-.53a3,3,0,0,1-.23.37.41.41,0,0,1-.34.16H99.47v-1h2.16l-.69-5.39.83-1,.48,6.4h.4Z" transform="translate(-78.87 -148.2)"/><path class="cls-2" d="M105.71,201.14l-.56,1.1-.14,0,.32,3.26a6.21,6.21,0,0,1-.13,1.08c-.1.51-.19.76-.28.76h-2.56v-1h2.4s0-.08,0-.23a34.89,34.89,0,0,0-.57-4.36l-.06,0a.33.33,0,0,1-.19-.28.44.44,0,0,1,.07-.24l.5-.88c.1-.17.17-.24.21-.2s.09,0,.09.1a.54.54,0,0,1,0,.16.54.54,0,0,0,0,.16.18.18,0,0,0,.11.15C105.15,200.85,105.43,201,105.71,201.14Z" transform="translate(-78.87 -148.2)"/><path class="cls-2" d="M113,206.07l-.31.84a5.33,5.33,0,0,0-1.67.37,5.16,5.16,0,0,0-.84.54l-.41.31s0,0,0,0c0-.19.21-.47.64-.84a2.42,2.42,0,0,1,.59-.34,2.1,2.1,0,0,1-.72-.11c-.38-.1-.56-.21-.56-.35a1.93,1.93,0,0,1,.63-1.4,2.27,2.27,0,0,1,1.39-.7.5.5,0,0,1,.43.14.4.4,0,0,1,.13.29l-.37.58a.92.92,0,0,0-.81-.3,1.68,1.68,0,0,0-.49.22c-.23.13-.34.25-.34.34,0,.35.58.52,1.75.52a5,5,0,0,0,.62,0Z" transform="translate(-78.87 -148.2)"/><path class="cls-2" d="M116.79,207.3h-1.87q-.19-3.5-.49-6.66l.63-.86.32,3.67a21.19,21.19,0,0,0,.31,2.63l.08.1a.72.72,0,0,0,.52.15h.5Z" transform="translate(-78.87 -148.2)"/><path class="cls-2" d="M127.24,207.3H120.8a5.57,5.57,0,0,1-1.18-.11,1.2,1.2,0,0,1-.31-.19.54.54,0,0,0-.31-.15c.21,0,.1.08-.34.23a3.3,3.3,0,0,1-.93.22h-1.25v-1h1.63c.38,0,.62-.09.71-.27a.58.58,0,0,0,.07-.32,1.74,1.74,0,0,0,0-.31c0-.16,0-.26,0-.31a5.31,5.31,0,0,1,.91-1,3.48,3.48,0,0,1-.28,1.85.21.21,0,0,0,0,.13c0,.09.09.16.25.22a1.23,1.23,0,0,0,.36.06,2.51,2.51,0,0,0,.78-.1,9.45,9.45,0,0,0,2.25-1.33,4.31,4.31,0,0,1,2-1,1.79,1.79,0,0,1,1.12.56,1.64,1.64,0,0,1,.67,1.16,4.51,4.51,0,0,1-.35.71h.71Zm-3.92-5.25-.46.77-1.08-.65.47-.78Zm2.78,4.06c0-.17-.18-.44-.54-.8h0a1.29,1.29,0,0,0-1-.43,2.86,2.86,0,0,0-1.47.57l-1.31.89h3.45a2.74,2.74,0,0,1,.5,0C126,206.32,126.1,206.24,126.1,206.11Z" transform="translate(-78.87 -148.2)"/><path class="cls-2" d="M131,207.3h-.75a.1.1,0,0,1-.1-.07.53.53,0,0,0-.06-.13,1.39,1.39,0,0,1-.1-.21c0-.11-.08-.17-.12-.17s-.11.1-.23.29a1.63,1.63,0,0,1-.21.29h-2.51v-1h3l-.18-1.4a9.44,9.44,0,0,1,.7-1.05s.07.72.14,2.16c0,.2,0,.29.16.29H131Zm-.19,1.73-.45.8-1.11-.64-.35.59-1.14-.67.49-.83,1.15.72.34-.61Z" transform="translate(-78.87 -148.2)"/><path class="cls-2" d="M134.57,207.3h-.82c-.1,0-.17-.06-.21-.19a1.23,1.23,0,0,1,0-.24c0-.1,0-.14-.06-.15a3,3,0,0,0-.22.29c-.13.2-.21.29-.24.29h-2.36v-1h2.82l-.19-1.13c.33-.69.56-1,.71-1a11.72,11.72,0,0,1,.13,1.88.27.27,0,0,0,.3.29h.18Zm-.8,1.89-.49.89-1.2-.67.47-.81Z" transform="translate(-78.87 -148.2)"/><path class="cls-2" d="M137.7,201.14l-.55,1.1-.14,0,.32,3.26a6.21,6.21,0,0,1-.13,1.08c-.1.51-.19.76-.28.76h-2.56v-1h2.4s0-.08,0-.23a34.89,34.89,0,0,0-.57-4.36l-.06,0a.33.33,0,0,1-.19-.28.44.44,0,0,1,.07-.24l.5-.88c.1-.17.17-.24.21-.2s.09,0,.09.1a.54.54,0,0,1,0,.16.54.54,0,0,0-.05.16.18.18,0,0,0,.11.15C137.15,200.85,137.43,201,137.7,201.14Z" transform="translate(-78.87 -148.2)"/><path class="cls-2" d="M140.16,206a5.42,5.42,0,0,1-.46,1.67q-.22-2.56-.61-6.21a3.79,3.79,0,0,1,.73-1.69c0,.07.11,1.11.2,3.14Z" transform="translate(-78.87 -148.2)"/><path class="cls-2" d="M151.52,203.15c-.06.2-.15.5-.25.91a.69.69,0,0,0-.63-.34,2.28,2.28,0,0,0-1.74,1.13,1.45,1.45,0,0,0-.35.69q0,.42,1.11.57l.89.13c.44.11.66.24.66.42a2.43,2.43,0,0,1-.19.9c-.11.22-.21.44-.31.65a3.11,3.11,0,0,1-1.44.87,7.27,7.27,0,0,1-2.58.48,2.63,2.63,0,0,1-1.37-.34,1.73,1.73,0,0,1-.85-1.62,9.64,9.64,0,0,1,.17-1.53c.16-.84.34-1.25.55-1.25s.1,0,.1.13a4.68,4.68,0,0,1-.21.88,3.76,3.76,0,0,0-.22,1.1,1.38,1.38,0,0,0,1,1.31,4.22,4.22,0,0,0,1.77.3,6.33,6.33,0,0,0,1.84-.34,3,3,0,0,0,1.18-.56c0-.23-.23-.37-.68-.43l-1.23-.14c-.45-.09-.67-.28-.67-.59a4.33,4.33,0,0,1,.88-2.31,2.7,2.7,0,0,1,2-1.44A.55.55,0,0,1,151.52,203.15Zm-2.08,8.27-.45.76-1.05-.64-.35.6-1.14-.67.45-.76,1.09.65.34-.6Z" transform="translate(-78.87 -148.2)"/><path class="cls-2" d="M156.34,206.23l-.19,1a3.1,3.1,0,0,1-1.15.26,10.43,10.43,0,0,1-1.22.09c-.31,0-.74,0-1.28-.08l.28-1a7.44,7.44,0,0,0,1.05.08,16.27,16.27,0,0,0,2-.16,1.29,1.29,0,0,0-.18-.95,4.28,4.28,0,0,0-1.21-1.37c0-.09.07-.5.2-1.24a3.84,3.84,0,0,1,1,1,3.88,3.88,0,0,1,.71,1.85A2.42,2.42,0,0,1,156.34,206.23Z" transform="translate(-78.87 -148.2)"/><path class="cls-2" d="M159.87,207.3H158q-.19-3.5-.49-6.66l.64-.86.31,3.67a21.19,21.19,0,0,0,.31,2.63l.09.1a.67.67,0,0,0,.51.15h.5Z" transform="translate(-78.87 -148.2)"/><path class="cls-2" d="M163,205.69a9,9,0,0,1-.29,1.61h-3.15v-1h2.89a3.7,3.7,0,0,0-.67-1.78l.52-1a4.72,4.72,0,0,1,.41.82A3.67,3.67,0,0,1,163,205.69Zm-.27,3.53-.46.78-1.08-.66-.32.61-1.14-.66.46-.78,1.06.64.36-.57Z" transform="translate(-78.87 -148.2)"/><path class="cls-2" d="M166,199.48l-.26.39a2.82,2.82,0,0,0-1.29.38l-.54.28s0,0,0,0,.28-.32.84-.65a2.05,2.05,0,0,1-.51-.06c-.24-.06-.38-.14-.41-.24a1.19,1.19,0,0,1,.34-.76,1.16,1.16,0,0,1,.93-.45c.23,0,.34.1.34.26a1.27,1.27,0,0,1-.13.34.49.49,0,0,0-.45-.2,1.23,1.23,0,0,0-.36.06c-.2.07-.3.15-.33.26a.13.13,0,0,0,0,.07c0,.15.22.24.65.28Zm3.81,1.12a1.9,1.9,0,0,1-.45.85v.29a5.7,5.7,0,0,1-.47,2.24,5.25,5.25,0,0,1-.36.67,1.72,1.72,0,0,0-.23.4,10.64,10.64,0,0,1,.39,1.39,1.1,1.1,0,0,1,0,.18.93.93,0,0,1-.14.49.45.45,0,0,1-.41.26h-2.82l.17-1a4.29,4.29,0,0,0,2.2-1.33,4.32,4.32,0,0,0-.74-1.07,11.41,11.41,0,0,0-1-1.08q-.06.18-.18.48-.93-.6-1.11-.75a1,1,0,0,1-.47-.79c0-.75.13-1.13.36-1.13s.61.29,1.25.86a10.53,10.53,0,0,1,2.3,3,3,3,0,0,0,.58-1.4,6.42,6.42,0,0,0-.16-2,1.64,1.64,0,0,1-.34-.41,1.07,1.07,0,0,1,.29-.76c.23-.32.35-.45.36-.4a1.18,1.18,0,0,0,.95,1S169.77,200.58,169.78,200.6Zm-1.66,5.8a2.61,2.61,0,0,0-.19-1,4.59,4.59,0,0,1-1.52,1.12Z" transform="translate(-78.87 -148.2)"/><path class="cls-2" d="M172.22,206a5.42,5.42,0,0,1-.46,1.67q-.22-2.56-.61-6.21a3.79,3.79,0,0,1,.73-1.69c0,.07.11,1.11.2,3.14Z" transform="translate(-78.87 -148.2)"/><path class="cls-2" d="M181.08,207.3h-.46a1,1,0,0,1-.79-.24.93.93,0,0,1-.28-.6,2.64,2.64,0,0,0-.08-.67c-.14,0-.27.12-.41.38s-.24.37-.31.37l-1.11-.27c-.73-.19-1.07-.35-1-.5a4.12,4.12,0,0,1,.45-1.1,1.87,1.87,0,0,1,.8-.84,7.09,7.09,0,0,1,.88-.31,1.22,1.22,0,0,0,.39-.15l-.08-.55.65-.89h0l.45,3.91c0,.32.11.48.41.48h.51Zm-1.47-6.43-.47.76-1.08-.65-.34.61-1.12-.67.47-.75,1.05.62.36-.57Zm-.17,4.59v-.07l-.27-1.72s-.18.2-.42.62l-.62.21a2.34,2.34,0,0,0-.85.45,2.33,2.33,0,0,0,.78.41,3.11,3.11,0,0,0,.88.16l.25,0Z" transform="translate(-78.87 -148.2)"/><path class="cls-2" d="M189.4,207.3h-.59l-.11-.07a3.64,3.64,0,0,1-.83.09,2.59,2.59,0,0,1-1.25-.34l-.39.23a4.28,4.28,0,0,1-1.31.13,3.4,3.4,0,0,1-1.37-.14l-.34-.33-.23.22a.79.79,0,0,1-.53.21h-1.58v-1h1.83c.44,0,.66-.15.66-.46a1.22,1.22,0,0,0,0-.22c0-.1,0-.17,0-.22l.88-1a2.42,2.42,0,0,1-.42,1.7c.06.14.45.21,1.19.21.52,0,1.05,0,1.58-.08h0s.05-.12.05-.35a1,1,0,0,0,0-.15v-.17c0-.22.31-.57.92-1.06a15.3,15.3,0,0,0-.39,1.57c0,.14.47.22,1.41.22a6.94,6.94,0,0,0-.22-1v0c0-.07.12-.22.34-.46a5.45,5.45,0,0,0,.44-.49v1.39a2.12,2.12,0,0,1,0,.27,1.53,1.53,0,0,0,0,.27h.37Z" transform="translate(-78.87 -148.2)"/><path class="cls-2" d="M197.4,205.81a3.3,3.3,0,0,1-.17,1,1.4,1.4,0,0,1-.21.47h-1.64a.32.32,0,0,1-.21-.2l-.08-.16a5,5,0,0,1-.41.36h-2.93c-.12-.24-.19-.36-.22-.36.12,0,.06.06-.16.18a1.33,1.33,0,0,1-.46.18h-1.73v-1h2.11c.18,0,.28-.12.32-.37,0-.06,0-.24,0-.56l.88-.93a5.29,5.29,0,0,1-.43,1.86h2.77s.06-.21.06-.7c0-.22.31-.57.92-1.06-.08.3-.21.82-.39,1.58,0,.13.29.19,1,.19h.41c0-.19-.1-.5-.21-.94,0-.07.07-.22.29-.44a4,4,0,0,0,.48-.55Z" transform="translate(-78.87 -148.2)"/><path class="cls-2" d="M202.21,207.3h-.5A3.34,3.34,0,0,1,201,209q-.76,1.17-1.59,1.17a6,6,0,0,1-1.36-.3c-.71-.21-1.07-.38-1.07-.5s.05-.09.14-.09a2.91,2.91,0,0,1,.68.15,2.74,2.74,0,0,0,.76.14,2.67,2.67,0,0,0,1.64-.8,3.39,3.39,0,0,0,1.12-1.48,8.24,8.24,0,0,1-1.08,0c-.63-.1-1-.43-1-1a3.28,3.28,0,0,1,.4-1.37q.47-.93.93-.93c.24,0,.47.2.7.6a4.11,4.11,0,0,1,.43,1.77h.43Zm-.29-5.37s-.13.19-.3.44a3.4,3.4,0,0,0-1.49.44l-.62.34a.08.08,0,0,1,0,0q0-.2,1-.78a1.63,1.63,0,0,1-.65-.08c-.26-.07-.41-.15-.44-.25a1.54,1.54,0,0,1,1.5-1.4q.39,0,.39.3a2.9,2.9,0,0,1-.16.39.59.59,0,0,0-.51-.23,1.59,1.59,0,0,0-.43.08c-.24.08-.37.17-.4.29s0,0,0,.08.25.28.75.33Zm-.67,4.22a1.45,1.45,0,0,0-.19-.65.77.77,0,0,0-.6-.46c-.15,0-.31.08-.49.28a.89.89,0,0,0-.27.53c.19.31.6.46,1.24.46C201.14,206.31,201.25,206.26,201.25,206.15Z" transform="translate(-78.87 -148.2)"/><path class="cls-2" d="M207.49,206.11c-.2.73-.36,1.09-.48,1.09a5.73,5.73,0,0,1-1.33-.42,7.09,7.09,0,0,0-1.27-.41,6,6,0,0,1-.38.47c-.26.31-.44.46-.54.46H202v-1h1.48q.5,0,.57-.18c.65-1.61,1.56-2.42,2.73-2.42.06,0,.1.08.12.25s0,.41.06.46A15.39,15.39,0,0,1,207.49,206.11Zm-.72-.2a1.4,1.4,0,0,0-.24-.73.8.8,0,0,0-.58-.44c-.35,0-.7.24-1.06.76l1.75.61C206.73,206.11,206.77,206,206.77,205.91Z" transform="translate(-78.87 -148.2)"/></svg>