<svg id="_лой_1" data-name="‘лой_1" xmlns="http://www.w3.org/2000/svg" viewBox="0 0 2984.24 1436.26"><defs><style>.cls-1{fill:#ebf3fa;}.cls-2{fill:#c8dbf4;}.cls-3{fill:#dfebfd;}.cls-4{fill:#f99746;}.cls-5{fill:#233862;}.cls-6{fill:#2b478b;}.cls-7{fill:#ffb27d;}.cls-8{fill:#ed975d;}.cls-9{fill:#fff;}.cls-10{fill:#163560;}.cls-11{fill:#ed7d2b;}.cls-12{fill:#a8d29f;}.cls-13{fill:#82b378;}.cls-14{fill:#ea6c2d;}.cls-15{fill:#ffb93e;}.cls-16{fill:#ffa412;}.cls-17{fill:#d1f2c9;}.cls-18{fill:#95c38b;}.cls-19{fill:#ffae71;}.cls-20{fill:#fcecdb;}.cls-21{fill:#efcbab;}.cls-22{fill:#c0d8fb;}.cls-23{fill:#b7d3f3;}.cls-24{opacity:0.4;}.cls-25{fill:#b0d4ff;}.cls-26{fill:#8bb9ef;}.cls-27{fill:#77a4e5;}.cls-28{fill:#9fc3f7;}.cls-29{fill:#8bb3ee;}.cls-30{fill:#d2e3fc;}.cls-31{fill:#afcdfb;}.cls-32{fill:#9abfe2;}.cls-33{fill:#f9ddbf;}.cls-34{fill:#f2ccaa;}.cls-35{fill:#e8945b;}.cls-36{fill:#1f396d;}.cls-37{fill:#bbd2ef;}.cls-38{fill:#d5e5fb;}.cls-39{fill:#0f2949;}.cls-40{fill:#2e3552;}.cls-41{fill:#b5453c;}.cls-42{fill:#9fc1f4;}.cls-43{fill:#ff9843;}.cls-44{fill:#ffc48a;}</style></defs><path class="cls-1" d="M3019.32,1706.57s-2811.43,1.34-2838,1.34c-14.62,0-128.17-643.37,37.61-1002.83q11.77-25.55,25.49-49.07,6.59-11.26,13.63-22a658.75,658.75,0,0,1,44.63-60.31q11.58-14,23.7-27c232.1-249.39,596.5-244.23,725-189.89,142,60,233.37-81.22,442.59-83.14,15.14-.14,29.64.15,43.58.8,3.7.18,7.35.39,11,.61,296.06,18.77,326.58,213.11,567.24,195.65,254.7-18.47,463.8-132.39,760.24,121.65S3019.32,1706.57,3019.32,1706.57Z" transform="translate(-116.82 -273.67)"/><path class="cls-2" d="M790.53,546.74v1158H218.93V705.08q11.77-25.55,25.49-49.07,6.59-11.26,13.63-22a658.75,658.75,0,0,1,44.63-60.31q11.58-14,23.7-27Z" transform="translate(-116.82 -273.67)"/><path class="cls-3" d="M762.58,573.69V1704.46H244.42V656q6.59-11.26,13.63-22a658.75,658.75,0,0,1,44.63-60.31Z" transform="translate(-116.82 -273.67)"/><path class="cls-2" d="M688.8,1153A17.21,17.21,0,1,1,706,1170.18,17.21,17.21,0,0,1,688.8,1153Z" transform="translate(-116.82 -273.67)"/><path class="cls-2" d="M721,796.17H296.76V630H721Zm-420.33-3.95H717.09V633.94H300.71Z" transform="translate(-116.82 -273.67)"/><path class="cls-2" d="M721,1002.65H296.76V836.46H721ZM300.71,998.7H717.09V840.42H300.71Z" transform="translate(-116.82 -273.67)"/><path class="cls-2" d="M721,1647.9H296.76V1204.11H721Zm-420.33-4H717.09V1208.06H300.71Z" transform="translate(-116.82 -273.67)"/><path class="cls-4" d="M1195,715.81s91.7,160.25,73.31,215.51-79.93,58.79-79.93,58.79Z" transform="translate(-116.82 -273.67)"/><path class="cls-5" d="M1242.58,1702h-128c-9.17-6.22,2.47-67,2.47-67s34.94-13.26,41,13.7,44.5,35.51,64.85,38.8C1236.79,1689.7,1241.19,1697.35,1242.58,1702Z" transform="translate(-116.82 -273.67)"/><path class="cls-5" d="M1052.71,1702h-128c-9.17-6.22,2.47-67,2.47-67s35-13.26,41,13.7,44.5,35.51,64.85,38.8C1046.92,1689.7,1051.32,1697.35,1052.71,1702Z" transform="translate(-116.82 -273.67)"/><path class="cls-6" d="M1208.14,1081.56s-5.76,71.79-12.52,158.09c-9.19,117.23-34,407.89-34,407.89s-16.25,13.86-52.25,6.28c0,0-30.65-100.27-39.81-214.72-.15-1.87-.29-3.76-.43-5.65-8.52-116.51-21.78-361.83-21.78-361.83Z" transform="translate(-116.82 -273.67)"/><path class="cls-5" d="M1210.1,1056.75s-7.72,96.6-14.48,182.9l-126,199.45c-.15-1.87-.29-3.76-.43-5.65-8.52-116.51-21.78-361.83-21.78-361.83Z" transform="translate(-116.82 -273.67)"/><path class="cls-6" d="M1173.36,1056.75s-91.42,227.57-120.65,313.83c-20.82,61.45-79.53,277-79.53,277s-25.53,7.77-47-7.25c0,0-21.85-220.22,22.27-282.32,23.41-32.94,5.82-342.47,100.73-345.12S1173.36,1056.75,1173.36,1056.75Z" transform="translate(-116.82 -273.67)"/><path class="cls-7" d="M1132.52,721.28a57,57,0,0,1-39.38,5.3,81.63,81.63,0,0,1-26.68-11.26,78.51,78.51,0,0,1-10.77-8.11s.47-.68,1.27-2c4.12-7.05,16.62-32.41,11.06-73.15-.07-.53,4,.23,10.06,1.67,18.14,4.29,54.61,14.64,56.22,15.1h.06s.45,8.56,2,23.92c.13,1.36.26,2.77.41,4.24.19,1.8.37,3.71.6,5.67C1139,698.61,1132.52,721.28,1132.52,721.28Z" transform="translate(-116.82 -273.67)"/><path class="cls-8" d="M1136.31,672.73c-27.08,6.21-67.5-33.77-67.5-33.77a42.3,42.3,0,0,1,9.27-5.25c18.14,4.29,54.61,14.64,56.22,15.1h.06S1134.81,657.37,1136.31,672.73Z" transform="translate(-116.82 -273.67)"/><path class="cls-4" d="M1222.43,1018.43c-2,26.08-2.12,40.31-19.57,44.76,0,0-53.7,18.91-117.89,19.42-12.55.09-30.33-2.36-45.06-4.83-15.05-2.54-27-5.11-27-5.11-12.91-3-27.16-11-25.24-25.67,1-7.84,1.74-17.9,2.24-29.55,0-.74.07-1.49.1-2.25,1.42-34.1,1.19-81.07,1.36-126,.12-27.62.4-54.47,1.33-77.11,0,0-12.68-89,1.39-103.56,16.48-17.07,69.74-22.08,70.67-22.23,0,0,42.09,22.46,72.72,5.28,0,0,44.67,10.67,57.52,24.26,4.44,4.67,22.14,33.39,22.62,64.93.67,44-1.05,93.91-1.05,93.92.46,7.15,1.23,16.36,2.07,26.86.9,11.2,1.89,23.85,2.73,37,.42,6.65.81,13.43,1.12,20.21C1223.47,979.71,1223.77,1000.77,1222.43,1018.43Z" transform="translate(-116.82 -273.67)"/><path class="cls-7" d="M1145.51,646.64a137.48,137.48,0,0,1-25.33,5.91c-20.76,2.8-48.06,1.15-56.64-24-14.44-42.28-32.89-67.63,9.61-84.9,22.76-9.24,37.32-9.73,47.2-6.2,8.6,3,13.66,9.12,17.5,15.14C1146.1,565.56,1162.71,639.24,1145.51,646.64Z" transform="translate(-116.82 -273.67)"/><path class="cls-9" d="M1097.94,612.28s35.84-18.72,51.82-19.18c0,0,18,43.84-3.19,55.48-17.35,7.31-44.75,1.6-58-9.36C1088.58,639.22,1098.39,628,1097.94,612.28Z" transform="translate(-116.82 -273.67)"/><polygon class="cls-9" points="981.58 340.05 959.66 320.39 960.57 319.37 982.85 338.74 981.58 340.05"/><polygon class="cls-9" points="971.8 365.47 955.51 347.49 956.55 346.6 973.69 364.7 971.8 365.47"/><path class="cls-10" d="M1141.07,527.09c9.6,2.33,13.92,17.45,4.78,23.74-16.39,11.28-36.41,6.85-43.79,10.13-10.57,4.7-12.47,22.43-12.66,28.06s-.93,10.4-15.29,7c-2.35-.55-4-.39-5.21.31-6,3.54,1.65,20.66,3.95,24.37,0,0,3.3,12.27-4,18.24-.89.72-15.29,7-50-46.1-5.45-8.34-10.66-27.12-2.23-45.2s34.43-40.48,65.66-40.48C1107,507.18,1120.75,522.15,1141.07,527.09Z" transform="translate(-116.82 -273.67)"/><path class="cls-11" d="M1114.84,967.43c4.57,8.56,1,34.69,1,34.69s-71.92,13.36-127.74,44.18c0-.75,1.91-30.34,1.94-31.1,1.42-34.1,1.42-183.3,1.59-228.26,0,0,47.09,14.95,33.79,44.75-8.8,19.72-11,48.4-5.93,60.27C1042,945.06,1110.63,959.52,1114.84,967.43Z" transform="translate(-116.82 -273.67)"/><path class="cls-12" d="M1189.46,723c0,.48,0,.73,0,.73l-.23-.71c-1.24-3.83-7.31-22.74-12.84-43.79-7.64-29.13-14.23-62.36-5.56-65.43,16.44-5.83,19.47,40.71,19.52,75.06C1190.34,705.73,1189.64,719.69,1189.46,723Z" transform="translate(-116.82 -273.67)"/><path class="cls-12" d="M1205.55,685.14c-5.94,13.18-11.1,24.27-14.06,30.91-1.28,2.89-2.15,4.94-2.49,6,.29-1.64,1.06-6,2.17-12.31h0c1.66-9.38,4.07-22.94,6.72-37.66,6.42-35.77,14.24-78.4,16.07-84.5,3.21-10.75,18-33.63,28-13.72C1248.49,586.74,1223.45,645.42,1205.55,685.14Z" transform="translate(-116.82 -273.67)"/><path class="cls-12" d="M1206.74,703.94c-6.14,6.48-11.3,11.74-14.18,14.64-1.57,1.59-2.47,2.48-2.47,2.48s1.57-3.35,4.25-8.71c2.53-5.05,6.05-11.89,10.16-19.38,13.46-24.54,33.28-56,45.58-54.16C1264.1,640.88,1229,680.45,1206.74,703.94Z" transform="translate(-116.82 -273.67)"/><path class="cls-13" d="M1189.46,723l-.27,0c-1.24-3.83-7.31-22.74-12.84-43.79,2.58,3.86,7.24,9,14,9.63C1190.34,705.73,1189.64,719.69,1189.46,723Z" transform="translate(-116.82 -273.67)"/><path class="cls-13" d="M1205.55,685.14c-5.94,13.18-11.1,24.27-14.06,30.91a55.19,55.19,0,0,1-.32-6.36h0c1.66-9.38,4.07-22.94,6.72-37.66C1198.92,677.16,1201.08,682.86,1205.55,685.14Z" transform="translate(-116.82 -273.67)"/><path class="cls-13" d="M1206.74,703.94c-6.14,6.48-11.3,11.74-14.18,14.64a39.94,39.94,0,0,1,1.78-6.23c2.53-5.05,6.05-11.89,10.16-19.38C1204.59,696.11,1205,700.78,1206.74,703.94Z" transform="translate(-116.82 -273.67)"/><path class="cls-12" d="M1189,722c-.09.46-.13.71-.13.71S1188.85,722.44,1189,722Z" transform="translate(-116.82 -273.67)"/><path class="cls-14" d="M1197.24,769.31c-10.3,29.18-23.12,61-23.12,61l-29-8.69s3.4-21.61,8.37-45.66c5.81-28,9.13-56.32,21-63.68a22.39,22.39,0,0,1,10.28-3.22,24.94,24.94,0,0,1,5.19.15l1.2.18a28.36,28.36,0,0,1,3,.7c.38.11.75.23,1.12.36A28.3,28.3,0,0,1,1199,712c5,2.55,9.06,6.39,10.64,10.54C1214.4,735,1205,747.27,1197.24,769.31Z" transform="translate(-116.82 -273.67)"/><path class="cls-15" d="M1183.08,805.06c-7.61,23.09-9.87,48.42-6.74,75.46a15.07,15.07,0,0,0,6.66,10.83,15.26,15.26,0,0,0,5.47,2.23c4.47,0,13.29-8.15,18.34-18.52a39.17,39.17,0,0,0,3.13-8.95c5.06-24,14.43-52.89,26-67.66,11.88-15.1,27.88-33.15,49.89-45.56h0c2.12-1.21,52-37.57,52-37.57,5-5.26-.92-11.14-.92-11.14s-4.74,4.16-19.2,12.49-39.87-1.43-39.88-1.44a24.24,24.24,0,0,0-22.56,1.36,179.17,179.17,0,0,0-38.79,31.75A155.9,155.9,0,0,0,1183.08,805.06Z" transform="translate(-116.82 -273.67)"/><path class="cls-16" d="M1209.94,866.11c5.06-24,14.43-52.89,26-67.66,11.88-15.1,27.88-33.15,49.89-45.56h0c.38-.28,15.27-11.25-1.23-21.2-16.15-9.72-82.06,62.75-77.85,143.38A39.17,39.17,0,0,0,1209.94,866.11Z" transform="translate(-116.82 -273.67)"/><path class="cls-12" d="M1149.51,772.27a54.54,54.54,0,0,1-7.67,9.42c-11.44,11.27-29.41,19.63-52.53,19.41,0,0-9.71-9.25-14.41-21h0c-3.26-8.17-5.65-20.2,0-29.12a22.37,22.37,0,0,1,13-9.91c8.06-2.45,16.29-1.19,19.89-4.78a35.84,35.84,0,0,1,14.15-8.35c.9-.29,1.82-.54,2.75-.75h0c.38-.09.77-.18,1.16-.25h0c8.55-1.67,17.68,0,24,7.59a26.84,26.84,0,0,1,4,6.47C1158,750.11,1156.23,761.71,1149.51,772.27Z" transform="translate(-116.82 -273.67)"/><path class="cls-17" d="M1082.25,749.62s-7.63,6-5.29,12.62,8.37,3.57,10.25-1S1087.27,747.4,1082.25,749.62Z" transform="translate(-116.82 -273.67)"/><path class="cls-18" d="M1150,734.49a27.36,27.36,0,0,1,4,6.47c4.07,9.15,9.66,33.41,2.94,44l-9,8.25c-11.45,11.27-35.4,8.14-58.52,7.92,0,0-9.71-9.25-14.41-21h0s28.6,11.32,55.55-12.31A59.09,59.09,0,0,0,1150,734.49Z" transform="translate(-116.82 -273.67)"/><path class="cls-12" d="M1106.34,722.43c-4.73-2.82-9.5,1.13-15,3.3s-16.22,2.13-16.22,2.13a77.59,77.59,0,0,1,11.58-12.6C1093.85,709,1106.34,722.43,1106.34,722.43Z" transform="translate(-116.82 -273.67)"/><path class="cls-13" d="M1106.34,722.43c-4.44-3.65-12.65-5.74-16.65-4.1s-14.62,9.53-14.62,9.53a77.59,77.59,0,0,1,11.58-12.6C1093.85,709,1106.34,722.43,1106.34,722.43Z" transform="translate(-116.82 -273.67)"/><path class="cls-18" d="M1107.84,736.26a35.84,35.84,0,0,1,14.15-8.35c-9.43,3.54-14.64,15.49-18.21,14.11-3.84-1.49-15.39-1-15.83-1C1096,738.59,1104.24,739.85,1107.84,736.26Z" transform="translate(-116.82 -273.67)"/><path class="cls-18" d="M1125.91,726.91c-.3.08-.68.16-1.16.25C1125.13,727.07,1125.52,727,1125.91,726.91Z" transform="translate(-116.82 -273.67)"/><path class="cls-13" d="M1104.44,741.78h0c-3-6.68-1.39-15,.52-20.75a129.61,129.61,0,0,1,5.85-13.76.77.77,0,0,1,1.42.1l.57,1.74a6.28,6.28,0,0,1-.58,5.23c-2.92,4.83-8.8,16.13-6.15,25.43C1106.37,740.81,1105,743,1104.44,741.78Z" transform="translate(-116.82 -273.67)"/><path class="cls-6" d="M1166.7,771.9l-.94-.38a34.79,34.79,0,0,1,15.71-12.41,41.06,41.06,0,0,1,9.3-2.45.92.92,0,0,1,.82.31l.79.92a.78.78,0,0,1-.48,1.27C1187.35,759.81,1173,762.54,1166.7,771.9Z" transform="translate(-116.82 -273.67)"/><path class="cls-4" d="M1149,773.67c4.77-11.93,11.5-9.24,19.79-5.92s15,6,10.24,17.94a16.18,16.18,0,1,1-30-12Z" transform="translate(-116.82 -273.67)"/><path class="cls-19" d="M1154,771.2c.3-2.14,3.74-4.39,5.88-4.09s3.13,2.69,2.83,4.83-3.24,4-5.38,3.68A3.91,3.91,0,0,1,1154,771.2Z" transform="translate(-116.82 -273.67)"/><path class="cls-20" d="M1264.11,776.68l25.61,182.46a37.61,37.61,0,0,1-37.24,42.84h-38.59a32.74,32.74,0,0,1-32.54-36.3L1203,796Z" transform="translate(-116.82 -273.67)"/><path class="cls-20" d="M1129.59,776.68s62.09,21.09,134.52,0l-21.34,225.1H1107.6Z" transform="translate(-116.82 -273.67)"/><path class="cls-21" d="M1129.59,776.68l25.62,182.46A37.62,37.62,0,0,1,1118,1002h-38.59a32.74,32.74,0,0,1-32.54-36.3l18.35-189s9,1.76,31,1.76C1118,778.44,1129.59,776.68,1129.59,776.68Z" transform="translate(-116.82 -273.67)"/><path class="cls-11" d="M1244.47,797a4.81,4.81,0,1,0-7.22,4.15c2,16.19-1.18,29.42-9.2,37.53-7.3,7.36-18.37,10.09-32,7.89-12-1.93-19.89-15.21-24.4-26a125.74,125.74,0,0,1-6.27-19.94,4.81,4.81,0,1,0-5.53.54c2.59,11.87,12.16,47.09,35.33,50.83a61.4,61.4,0,0,0,9.7.81c11.11,0,20.36-3.48,27.08-10.27,9.21-9.29,13-24,10.78-41.84A4.8,4.8,0,0,0,1244.47,797Z" transform="translate(-116.82 -273.67)"/><path class="cls-7" d="M1099.79,987.28s34.31,22.64,47.55,24.09c9,1,44.6-.47,44.8-5,.28-6.36-21.74-13.07-27.44-15.62s-10.17-5.5-10.13-8,22.06,5.69,19.68.32-22.72-14.72-27.63-15.62-20.77,4.48-26.93,1.63S1099.79,987.28,1099.79,987.28Z" transform="translate(-116.82 -273.67)"/><path class="cls-4" d="M1006,700.24s-23.5,9.92-51.43,62.11-54.35,162.7-43,180.67,106.69,59.1,189.81,48.14c0,0,20.62-18.78,16.47-26,0,0-136.7-55.6-136.47-66.56.14-6.79,72.74-98.47,75.57-127.62S1006,700.24,1006,700.24Z" transform="translate(-116.82 -273.67)"/><rect class="cls-22" x="2189.93" y="317.17" width="177.86" height="172.55" rx="12.72"/><rect class="cls-3" x="2197.63" y="324.64" width="162.45" height="157.6" rx="11.62"/><path class="cls-23" d="M2392,614.06a3.69,3.69,0,1,1,3.69,3.69A3.69,3.69,0,0,1,2392,614.06Z" transform="translate(-116.82 -273.67)"/><path class="cls-23" d="M2421.72,619.27a3.68,3.68,0,1,1,1.43,5A3.68,3.68,0,0,1,2421.72,619.27Z" transform="translate(-116.82 -273.67)"/><path class="cls-23" d="M2447.19,639.51a3.68,3.68,0,1,1-1.1,5.09A3.69,3.69,0,0,1,2447.19,639.51Z" transform="translate(-116.82 -273.67)"/><path class="cls-23" d="M2459.81,670.82a3.69,3.69,0,1,1-3.69,3.69A3.69,3.69,0,0,1,2459.81,670.82Z" transform="translate(-116.82 -273.67)"/><path class="cls-23" d="M2453.37,707.17a3.68,3.68,0,1,1-5.21,0A3.7,3.7,0,0,1,2453.37,707.17Z" transform="translate(-116.82 -273.67)"/><path class="cls-23" d="M2430.23,730.37a3.68,3.68,0,1,1-5.21,0A3.68,3.68,0,0,1,2430.23,730.37Z" transform="translate(-116.82 -273.67)"/><path class="cls-23" d="M2392,742.32a3.69,3.69,0,1,1,3.69,3.69A3.69,3.69,0,0,1,2392,742.32Z" transform="translate(-116.82 -273.67)"/><path class="cls-23" d="M2369.52,619.27a3.69,3.69,0,1,0-1.44,5A3.69,3.69,0,0,0,2369.52,619.27Z" transform="translate(-116.82 -273.67)"/><path class="cls-23" d="M2344.05,639.51a3.68,3.68,0,1,0,1.09,5.09A3.69,3.69,0,0,0,2344.05,639.51Z" transform="translate(-116.82 -273.67)"/><path class="cls-23" d="M2331.43,670.82a3.69,3.69,0,1,0,3.68,3.69A3.68,3.68,0,0,0,2331.43,670.82Z" transform="translate(-116.82 -273.67)"/><path class="cls-23" d="M2337.87,707.17a3.68,3.68,0,1,0,5.21,0A3.68,3.68,0,0,0,2337.87,707.17Z" transform="translate(-116.82 -273.67)"/><path class="cls-23" d="M2361,730.37a3.68,3.68,0,1,0,5.21,0A3.68,3.68,0,0,0,2361,730.37Z" transform="translate(-116.82 -273.67)"/><path class="cls-23" d="M2394.68,674.51a3.69,3.69,0,1,1,3.69,3.68A3.69,3.69,0,0,1,2394.68,674.51Z" transform="translate(-116.82 -273.67)"/><rect class="cls-23" x="2281.05" y="354.81" width="1.01" height="46.03"/><rect class="cls-23" x="2394.59" y="663.36" width="31.02" height="3.02" transform="translate(-12.88 1356.71) rotate(-38.14)"/><g class="cls-24"><path class="cls-25" d="M1605.85,1416.35c3.29,7.81,34.9,15.06,81.8,21.47q12.4,1.7,26.15,3.31c159.63,18.8,596.85,29.3,623.8,23.76,37.24-7.67,111.34-382.15,111.34-382.15s-218.19-3.78-391.46-5.62c-59.28-.63-265.48-2.2-303.71-2.2C1694.55,1074.92,1600.54,1403.7,1605.85,1416.35Z" transform="translate(-116.82 -273.67)"/><path class="cls-25" d="M1666.24,1368.28s67-256.59,71.82-278.16c2.15-9.61,8.8-13.08,15.48-14-11.77-1.13-20.34-1.21-20.34-1.21-23.17,0-43.77,15.59-51.21,38.78-16.22,50.56-48.45,147.7-78.72,242.67C1604.8,1356.34,1666.24,1368.28,1666.24,1368.28Z" transform="translate(-116.82 -273.67)"/><path class="cls-25" d="M1260.23,1595.48c10.68,64.36,80.54,105.35,152.19,105.35h141.92l-11-371.87s-135.51-44.16-169.51-5.29c-29.8,34.06-110.6,168.87-114.85,248.66A105.68,105.68,0,0,0,1260.23,1595.48Z" transform="translate(-116.82 -273.67)"/><path class="cls-26" d="M1260.23,1595.48c10.68,64.36,80.54,105.35,152.19,105.35H1482C1435.61,1671.25,1393.64,1580.07,1260.23,1595.48Z" transform="translate(-116.82 -273.67)"/><path class="cls-27" d="M1637,1365.39s-191.44-91.88-227.71-31.86c-19.25,31.87-72.24,159-76.15,238.8-3.8,77.52,67.64,128.5,141.12,128.5h130.51Z" transform="translate(-116.82 -273.67)"/><path class="cls-28" d="M1384.71,1638.18c2.12,1.7,4.3,3.37,6.52,5,27.66,20.38,63.72,36.6,105,46.65a413.4,413.4,0,0,0,101,11.36l62.06,0h.84l293.76.08,168.37,0h2.49l0-.07,5.84-30.56,53.31-308.2s-737.85-16.61-797.84,17.63c-27.86,15.9-43.67,81.77-52.44,154.35C1329,1573.14,1348.74,1609.42,1384.71,1638.18Z" transform="translate(-116.82 -273.67)"/><path class="cls-29" d="M1384.71,1638.18c2.12,1.7,4.3,3.37,6.52,5,27.66,20.38,63.72,36.6,105,46.65a413.4,413.4,0,0,0,101,11.36l62.06,0h.84l293.76.08,168.37,0,2.51-.07,5.84-30.56c-103.2-19.94-246-40.2-395-38.63C1593.34,1633.59,1474.21,1633.39,1384.71,1638.18Z" transform="translate(-116.82 -273.67)"/><path class="cls-30" d="M1979.1,1598.84c11.51,62.43,74.66,102,139.39,102H2249l-10.21-375.16s-124.52-40.87-155.79-2c-27.41,34.06-101.71,168.87-105.62,248.66A114.68,114.68,0,0,0,1979.1,1598.84Z" transform="translate(-116.82 -273.67)"/><path class="cls-31" d="M1979.1,1598.84c11.51,62.43,74.66,102,139.39,102h104.44C2174.05,1669.68,2108.22,1583.6,1979.1,1598.84Z" transform="translate(-116.82 -273.67)"/><path class="cls-27" d="M2053.78,1601.45c5.19,24.65,18.46,45.62,36.61,61.87h0a142.73,142.73,0,0,0,37.07,23.79,160.41,160.41,0,0,0,54,13.45l2.92.18c.77,0,1.55.07,2.33.09,1.29.05,2.59.09,3.89.11h132.58v-.06l7.54.09c13.43.16,27.47.3,40.49.41l6.45,0H2380c12.87.08,24.24.12,32.35.07a228.29,228.29,0,0,0,32.28-2.34,150.84,150.84,0,0,0,36-9.68q2.94-1.21,5.77-2.56c1.92-.92,3.82-1.88,5.67-2.89a115.5,115.5,0,0,0,14.16-9.08,122.47,122.47,0,0,0,30.1-33.24,177.4,177.4,0,0,0,15.65-32.06,292.4,292.4,0,0,0,13.46-50c.09-.48.18-1,.26-1.43q2.36-12.91,4.07-27.17.79-6.51,1.45-13.28,2.33-24,3.11-51.56c0-1.6.08-3.22.12-4.85,0-.36,0-.72,0-1.08q.49-21.94.06-46.26-.19-10.66-.55-21.78c-.1-3.37-.23-6.78-.36-10.21q-1-25.87-2.87-54.23-.84-12.73-1.85-26-4.17-54.63-11.19-118.3c-5.29-48.25-11.38-82-20.24-89.66-13.08-11.33-40.35-15.89-59.32-17.71h0c-11.76-1.14-20.33-1.22-20.33-1.22h-1.26l-.9,0c-.72,0-1.44.08-2.15.14-.4,0-.81.07-1.21.12s-.53,0-.79.09l-1.19.16c-.7.1-1.4.22-2.1.35l-1.43.3-.12,0-1,.25c-.66.15-1.31.33-2,.51l-1.32.4-.91.3a53.49,53.49,0,0,0-10.38,4.82,56.57,56.57,0,0,0-24.46,31.39c-15.15,47.34-42.19,132-70.34,220.51-.13.45-.28.89-.42,1.33q-2.43,7.63-4.86,15.3c-.16.51-.32,1-.49,1.55-.08.26-.17.52-.25.78q-2.39-1-4.93-2.06a1,1,0,0,0-.18-.08c-6.74-2.81-14.38-5.89-22.62-9h0q-6.41-2.44-13.26-4.92c-12.88-4.64-26.78-9.23-40.87-13.18-6.25-1.77-12.55-3.4-18.81-4.85-8-1.88-16-3.46-23.78-4.63l-.68-.11-2.74-.39c-5.48-.75-10.84-1.31-16-1.61h0c-26.54-1.52-48.52,3.46-58.58,20.15a314.48,314.48,0,0,0-14.52,28.58,909,909,0,0,0-38.59,100.95c-12,38.14-21.47,77.87-23,110A114.84,114.84,0,0,0,2053.78,1601.45Z" transform="translate(-116.82 -273.67)"/><path class="cls-30" d="M2390.78,1368.28s67-256.59,71.82-278.16c2.15-9.61,8.79-13.08,15.48-14-11.77-1.13-20.34-1.21-20.34-1.21-23.18,0-43.78,15.59-51.21,38.78-16.23,50.56-46.1,143.8-76.36,238.77C2331.7,1352.44,2390.78,1368.28,2390.78,1368.28Z" transform="translate(-116.82 -273.67)"/></g><path class="cls-32" d="M2465.1,1260v11.24c0,3.94,1.27,7.15,2.82,7.15H2878c1.55,0,2.83-3.21,2.83-7.15V1260c0-3.92-1.28-7.14-2.83-7.14H2467.92C2466.37,1252.87,2465.1,1256.09,2465.1,1260Z" transform="translate(-116.82 -273.67)"/><path class="cls-3" d="M2465.1,1260v11.24c0,3.94,1.17,7.15,2.59,7.15h325.58c1.43,0,2.6-3.21,2.6-7.15V1260c0-3.92-1.17-7.14-2.6-7.14H2467.69C2466.27,1252.87,2465.1,1256.09,2465.1,1260Z" transform="translate(-116.82 -273.67)"/><rect class="cls-2" x="2568.89" y="1278.4" width="291.15" height="424.36" transform="translate(5312.12 2707.49) rotate(180)"/><rect class="cls-3" x="2487.3" y="1278.4" width="291.15" height="424.36" transform="translate(5148.94 2707.49) rotate(180)"/><path class="cls-23" d="M2502.94,1290.39H2762.8v388.95H2502.94ZM2760,1293.2H2505.75v383.33H2760Z" transform="translate(-116.82 -273.67)"/><rect class="cls-23" x="2387.53" y="1145.38" width="257.05" height="2.81"/><rect class="cls-23" x="2387.53" y="1276.56" width="257.05" height="2.81"/><path class="cls-23" d="M2606.53,1315.47h47.7a4.21,4.21,0,0,0,4.21-4.2h0a4.22,4.22,0,0,0-4.21-4.21h-47.7a4.22,4.22,0,0,0-4.21,4.21h0A4.22,4.22,0,0,0,2606.53,1315.47Z" transform="translate(-116.82 -273.67)"/><path class="cls-23" d="M2606.53,1443.75h47.7a4.22,4.22,0,0,0,4.21-4.21h0a4.22,4.22,0,0,0-4.21-4.21h-47.7a4.22,4.22,0,0,0-4.21,4.21h0A4.23,4.23,0,0,0,2606.53,1443.75Z" transform="translate(-116.82 -273.67)"/><path class="cls-23" d="M2606.53,1577.46h47.7a4.21,4.21,0,0,0,4.21-4.2h0a4.22,4.22,0,0,0-4.21-4.21h-47.7a4.22,4.22,0,0,0-4.21,4.21h0A4.22,4.22,0,0,0,2606.53,1577.46Z" transform="translate(-116.82 -273.67)"/><path class="cls-7" d="M1447,1146s-21.27,1.44-29.94,6.81-16.52,7.44-15,9.91,16.72-2.78,17,0-13.4,11.16-17.23,11.77-12.5,1.86-11,6.82,16.23,6.51,27.94,6.81,40.2-18.58,40.2-18.58Z" transform="translate(-116.82 -273.67)"/><path class="cls-33" d="M1462.53,1172.65c21.54,0,92.59-47.49,116.47-66.66a72.26,72.26,0,0,0,5.9-5.16c8.9-9.07,39.6-53.83,61.4-93.69,12.54-23,22.13-44.29,22.89-56.24,2.72-42.68-19.73-102.35-19.73-102.35-66.4,23.11-73.38,76.12-73.38,76.12l-34,126.65a33.74,33.74,0,0,1-11,17.21l-90,74.79C1438,1156.13,1455.35,1172.65,1462.53,1172.65Z" transform="translate(-116.82 -273.67)"/><path class="cls-34" d="M1579,1106a72.26,72.26,0,0,0,5.9-5.16c8.9-9.07,39.6-53.83,61.4-93.69,2.82-24.09.88-46.69-9-62.49C1637.25,944.65,1580.81,1044,1579,1106Z" transform="translate(-116.82 -273.67)"/><path class="cls-7" d="M1617.25,1500.69l11.29,47.07,7,29.14,23.26,97s19.9,6.13,40.59,0a353.15,353.15,0,0,0,7.88-72.12c.13-20.93-1.8-44-7.92-65.87a151.17,151.17,0,0,0-9.69-25.76C1656.83,1443.12,1617.25,1500.69,1617.25,1500.69Z" transform="translate(-116.82 -273.67)"/><path class="cls-6" d="M1598,1702.21h109.28s1.73-16.53-3.08-32.35a56.06,56.06,0,0,0-2.6-6.95s-24.4,5.53-45.43,0c0,0-19.79,16.85-31.75,22S1599.24,1687.28,1598,1702.21Z" transform="translate(-116.82 -273.67)"/><path class="cls-35" d="M1628.54,1547.76l7,29.14a168.41,168.41,0,0,0,71.73,24.86c.13-20.93-1.8-44-7.92-65.87-10-5.1-20.28-7.77-29-6.25C1648.65,1533.43,1635.76,1541.35,1628.54,1547.76Z" transform="translate(-116.82 -273.67)"/><path class="cls-36" d="M1654.74,1702.21h52.52s1.73-16.53-3.08-32.35C1691,1674,1664.16,1684.26,1654.74,1702.21Z" transform="translate(-116.82 -273.67)"/><path class="cls-7" d="M1704.37,1500.69l11.28,47.07,7,29.14,23.25,97s19.91,6.13,40.6,0a354,354,0,0,0,7.88-72.12c.12-20.93-1.8-44-7.92-65.87a151.17,151.17,0,0,0-9.69-25.76C1744,1443.12,1704.37,1500.69,1704.37,1500.69Z" transform="translate(-116.82 -273.67)"/><path class="cls-6" d="M1788.7,1662.91s-24.4,5.53-45.44,0c0,0-19.78,16.85-31.74,22s-25.17,2.36-26.42,17.29h109.28S1796.66,1680.4,1788.7,1662.91Z" transform="translate(-116.82 -273.67)"/><path class="cls-35" d="M1715.65,1547.76l7,29.14a168.41,168.41,0,0,0,71.73,24.86c.12-20.93-1.8-44-7.92-65.87-10-5.1-20.28-7.77-29-6.25C1735.77,1533.43,1722.88,1541.35,1715.65,1547.76Z" transform="translate(-116.82 -273.67)"/><path class="cls-4" d="M1601.49,1554.43c40.83,25.92,210.88,7.39,212.27-17.7,0,0-8.41-62.85-11.28-89.17-1.19-10.94-1.74-19.69-1-24.26,17.69-117,32.53-254.89,30.73-281.24-.25-3.71-.43-5.63-.43-5.63s-12.76-1.07-32.18-1.83c-56.43-2.23-169.08-1.84-187.79,35.06-19.07,37.6-19.54,256-19.54,256C1592.22,1485.72,1601.49,1554.43,1601.49,1554.43Z" transform="translate(-116.82 -273.67)"/><path class="cls-11" d="M1802.48,1447.56c-1.19-10.94-1.74-19.69-1-24.26,17.69-117,32.53-254.89,30.73-281.24-.25-3.71-.43-5.63-.43-5.63s-12.76-1.07-32.18-1.83c-29.19,17.2-48.19,46.49-48.19,46.49S1757.24,1400.11,1802.48,1447.56Z" transform="translate(-116.82 -273.67)"/><path class="cls-37" d="M1724.41,679c0-15.22-8.75-26.21-25.64-27.26-12.38-.77-29.5,6.74-29.5,22s12.35,32.87,27.57,32.87A27.57,27.57,0,0,0,1724.41,679Z" transform="translate(-116.82 -273.67)"/><path class="cls-38" d="M1700.89,789s66.27-59.68,15.28-105.53a38.24,38.24,0,0,0-17.44-8.93c-17.84-3.89-57.48-9.36-77.52,12.79-21.59,23.85-30.13,42-12.13,63.74S1700.89,789,1700.89,789Z" transform="translate(-116.82 -273.67)"/><path class="cls-7" d="M1787.42,1184.27a82.86,82.86,0,0,0-1.75,25.14c1.71,19.2,5.22,29.73,17.67,36,0,0,14.39,9.85,16.59-2.94s-2.16-13.24,1.32-31.18.85-31.57-9.47-39.65Z" transform="translate(-116.82 -273.67)"/><path class="cls-7" d="M1641.16,788.41s.89,9.84,2.56,23.13c.82,6.49,1.81,13.81,3,21.21.83,5.32,1.75,10.68,2.76,15.8L1672,924.8l53-85.79s-12.45-10.31-29.34-66.17c-.16-.6-.27-.92-.27-.92Z" transform="translate(-116.82 -273.67)"/><path class="cls-33" d="M1610.27,1164.6c-.69,8.57,1.48,10.12,1.48,10.12s32.6,11.82,114.58,7.73q13.31-.66,25-1.36c52.84-3.11,81.09-6.37,81.09-6.37s43.28-99.88-38-223a395.07,395.07,0,0,0-32.6-42.52c-13.17-15-16.08-35.11-21.06-54.2-1.43-5.48,2.7-6.69.64-11.85,0,0-14.83-4.19-16.36-4.19-8.41,7.42-19.52,21.84-47.09,24.69-18.64,1.95-25.94-8.56-28.59-14.85-7.11,2.56-14.47,7-20.5,9.9-50,24-54.55,70.49-54.55,70.49s45.91,151,48.76,169.81C1624.36,1107.43,1613.82,1120.46,1610.27,1164.6Z" transform="translate(-116.82 -273.67)"/><path class="cls-35" d="M1643.72,811.54c.82,6.49,1.81,13.81,3,21.21,57.91-22.53,50.54-54.09,49-59.91-.16-.6-.27-.92-.27-.92S1665.73,793,1643.72,811.54Z" transform="translate(-116.82 -273.67)"/><path class="cls-7" d="M1631.69,819.08s64.84,2.08,65.52-38.32,9.49-67.34-31.88-70.37-49.67,12.24-53.18,25.67S1614.84,817.5,1631.69,819.08Z" transform="translate(-116.82 -273.67)"/><path class="cls-38" d="M1626,704.34s4.07,77,83.11,69.74C1709.14,774.08,1707.46,671.14,1626,704.34Z" transform="translate(-116.82 -273.67)"/><path class="cls-38" d="M1641.16,711s-23.43,14.3-30.71,37.22C1610.45,748.26,1584.32,711.85,1641.16,711Z" transform="translate(-116.82 -273.67)"/><path class="cls-34" d="M1751.36,1181.09c52.84-3.11,81.09-6.37,81.09-6.37s43.28-99.88-38-223C1778,990.14,1739.15,1092.68,1751.36,1181.09Z" transform="translate(-116.82 -273.67)"/><path class="cls-33" d="M1725.05,839s62.73,12.87,90.68,45.23c21.41,24.8,44.84,146,44.84,166.06,0,19.14-22,120.92-35.74,140.43a4.56,4.56,0,0,1-4.2,1.93l-35.33-3.75a5.19,5.19,0,0,1-4.58-6l19.85-128.65L1730.9,930.74S1689.82,882.05,1725.05,839Z" transform="translate(-116.82 -273.67)"/><path class="cls-7" d="M1787.17,1192.69s-9.29,26.73-6.81,29.21,9-8.36,9-8.36Z" transform="translate(-116.82 -273.67)"/><path class="cls-9" d="M1623.64,791.84s1.92,6.6,5,7.22,8,1.66,12.39,0a9.56,9.56,0,0,0,5.58-5.16A52.45,52.45,0,0,0,1623.64,791.84Z" transform="translate(-116.82 -273.67)"/><path class="cls-5" d="M1984.67,1703.17l-1.77-523.73s-4-37.75-36.9-37.94c-35.12-.21-37.36,37.5-37.36,37.5a4,4,0,0,0,4.09,3.28,4.25,4.25,0,0,0,4.42-3.23s1.73-29.07,28.79-28.91c25.37.15,28.46,29.25,28.46,29.25l-3.12,523.7Z" transform="translate(-116.82 -273.67)"/><path class="cls-5" d="M1966.77,1703.06l21.84.13-1.81-22.84s.2-3.17-4.21-3.38c-4.1-.19-12.19-.82-13,1.65C1968.93,1680.8,1966.77,1703.06,1966.77,1703.06Z" transform="translate(-116.82 -273.67)"/><path class="cls-7" d="M1945.89,1113.74l-1.53,7.49s-37-.36-45.92,39.26c0,0-2.45,16.5,9.48,13s10.12-11.89,27-16.41,27.89-8,30.52-20.24l2.83-13.64Z" transform="translate(-116.82 -273.67)"/><path class="cls-4" d="M2078.75,789.81s-10,38.48-18.68,73.66c-3.49,14.17-6.75,27.8-9.05,38.17-2.36,10.65-3.7,17.87-3.2,18.67,7.27,12-6.58,84.59-17.35,110.92-1,2.34-2.26,5.07-3.82,8.11-15,29-54.87,85.88-54.87,85.88s-11.16,1.1-18.43-1.69c-6.07-2.35-10.18-9.81-10.18-9.81,1.89-7.37,18.26-72.77,36.88-110.33,8-16.07,20.45-165.52,35.81-185.56C2028.68,801.12,2078.75,789.81,2078.75,789.81Z" transform="translate(-116.82 -273.67)"/><path class="cls-11" d="M2047.82,920.31c7.27,12-6.58,84.59-17.35,110.92-1,2.34-2.26,5.07-3.82,8.11-13.81-62.83,10.22-151.58,10.22-151.58,5.85,2.36,10.51,7.23,14.15,13.88C2048.66,912.29,2047.32,919.51,2047.82,920.31Z" transform="translate(-116.82 -273.67)"/><path class="cls-39" d="M2146.28,1646.44s3.43,56.81-7.3,57.54c-1.43.1-54.39-.22-54.39-.22l-68.32-.4s1.25-16.68,21-20,52.94-17,65.07-43.07C2115.14,1612.88,2146.28,1646.44,2146.28,1646.44Z" transform="translate(-116.82 -273.67)"/><path class="cls-10" d="M2249,1647.05s3.43,56.81-7.29,57.54c-1.43.1-54.39-.21-54.39-.21L2119,1704s1.25-16.68,21-20,52.94-17,65.07-43.07C2217.89,1613.49,2249,1647.05,2249,1647.05Z" transform="translate(-116.82 -273.67)"/><path class="cls-6" d="M2150.32,1509.59c1.54,24,4.79,54.92,3.4,82.75-1.94,38.9-3.37,71.72-3.37,71.72-25.71,8.57-72.73-2.3-72.73-2.3s-16.11-98.45-29.4-177c-6-35.22-10.9-65.68-12.73-80.06-5.91-46.49,8.33-293.38,8.33-293.38s69.7-44.09,98.25-21,46.06,45.64-1.65,296.67C2136.8,1406,2146.88,1455.78,2150.32,1509.59Z" transform="translate(-116.82 -273.67)"/><path class="cls-5" d="M2150.32,1509.59c1.54,24,4.41,62.47,3,90.3-24-25.69-71.24-79.87-105.13-115.17-6-35.22-10.9-65.68-12.73-80.06-5.91-46.49,8.33-293.38,8.33-293.38s69.7-44.09,98.25-21,46.06,45.64-1.65,296.67C2136.8,1406,2146.88,1455.78,2150.32,1509.59Z" transform="translate(-116.82 -273.67)"/><path class="cls-6" d="M2106.54,1116.67s4.76,247.27,14.23,293.16,59.08,256,59.08,256,47.64,4.62,72.61-5.9c0,0-1-97.19-9.12-154.33-7.58-53.39-21.45-102.24-19.3-121.5,28.28-254,9.07-275.07-21.16-295.92S2106.54,1116.67,2106.54,1116.67Z" transform="translate(-116.82 -273.67)"/><path class="cls-7" d="M2201.83,1138.88s-16.71,33,14.89,58.55c0,0,13.71,9.5,15.89-2.72s-.28-8,3.15-25.11-.72-34.91-10.55-42.69Z" transform="translate(-116.82 -273.67)"/><path class="cls-7" d="M2063.82,733.7s18.64,30.43,14.67,57.45l28.07,66.79L2157,781.49S2131.2,751,2121.4,711.06Z" transform="translate(-116.82 -273.67)"/><path class="cls-7" d="M2055.32,758.37s69.39,3.42,70.9-38.24,20.44-69.28-31.46-73.25c-42.68-3.26-57,14.46-60.86,28.24S2029.6,756,2055.32,758.37Z" transform="translate(-116.82 -273.67)"/><path class="cls-4" d="M2223.06,1129.28c-14.92,1.3-35.46,2.89-60.39,4.31q-7.47.44-15.44.83c-75.24,3.76-105.07-8.59-105.07-8.59s-2-1.63-1.3-10.46c3.54-45.47,13.28-58.84,12.16-67.5-2.5-19.44-48.69-178.27-48.69-178.27s-.61-50.09,55.23-73.26a131.07,131.07,0,0,1,19.11-6.23c2.4,6.5,9,17.37,26.14,15.47,25.3-2.79,43.39-17.59,51.16-25.19,1.39,0,2,.05,2,.05a152.79,152.79,0,0,1,4.56,16.56c4.45,19.71,7,40.44,19,56A424,424,0,0,1,2212,898.28a375.69,375.69,0,0,1,18.56,36.16C2279.26,1043.72,2240.62,1127.74,2223.06,1129.28Z" transform="translate(-116.82 -273.67)"/><path class="cls-11" d="M2223.06,1129.28c-14.92,1.3-35.46,2.89-60.39,4.31-6.53-122.47,44-239.77,44-239.77a44.74,44.74,0,0,1,5.32,4.46c8.64,8.49,14.62,21.06,18.56,36.16C2245.13,990,2232.16,1080.17,2223.06,1129.28Z" transform="translate(-116.82 -273.67)"/><path class="cls-38" d="M2033.18,718.49s-13.84,53.54,9,61.22,83.81,2,84.17-63.73c0,0-32.06,18.87-47.32,18.29s-25-9.43-39.2-2.64C2039.88,731.63,2034.72,731.26,2033.18,718.49Z" transform="translate(-116.82 -273.67)"/><path class="cls-38" d="M2123.32,660c-1.14-4.26-6.37-6.52-6.37-6.52-39-17.26-67.67,1.2-67.67,1.2,24.15-32,81.95-24.93,93.95,4.16,19.61,47.48-16.83,57.13-16.83,57.13s-36.23-15.48-15.08-34.49c7-6.3,10.41-11.92,11.56-16.82h0A16.93,16.93,0,0,0,2123.32,660Z" transform="translate(-116.82 -273.67)"/><path class="cls-9" d="M2044.52,740.26s4.58,7.23,12.58,7,11.75-7,11.75-7S2055.36,737.68,2044.52,740.26Z" transform="translate(-116.82 -273.67)"/><path class="cls-7" d="M2202.71,1136.2s-11,18.49-12.33,22.94,4.11,4.63,7.19,0S2202.71,1136.2,2202.71,1136.2Z" transform="translate(-116.82 -273.67)"/><path class="cls-4" d="M2157.91,780.44s48.52,1.38,74,34.89c19.49,25.67,39.44,162.95,39.32,183.6s-22.92,134.48-35.38,146.79a46.62,46.62,0,0,1-18.71-.11,37.84,37.84,0,0,1-18-8.87s6.91-126.84,7-138.74c.1-17.24-53.15-123-53.15-123S2125.32,824.61,2157.91,780.44Z" transform="translate(-116.82 -273.67)"/><rect class="cls-40" y="1427.58" width="2984.24" height="8.68" rx="3.54"/><path class="cls-13" d="M2731,1071.09s-29.14-34-1.8-55.59c0,0,20-12.1,36.26-11.11,0,0-23.07,38.69-15.61,42.54s22.61-45,22.61-45,45.45-4.41,60.07,2.62c0,0-38.85,31.8-30.67,33.69S2852,1009,2852,1009s42.31,7.19,40.05,33-16.83,33.78-23.24,33.09-43.88-15-44.7-9.74,21.75,22.4,37.54,23.2c0,0-29.82,32.9-49.64,23.41s-21.52-24.55-33.87-30.19-22.91-5.63-17.81.13,27.47,11.35,34.53,23.85,13.41,20.93-7.1,17.84-53.84-18.09-55.31-35.28Z" transform="translate(-116.82 -273.67)"/><path class="cls-13" d="M2871.31,1042.66s-114.9-4.43-140.28,28.43c0,0-5.61,16.81-22.88,32.11l-2.69,7.34s19.91-21,27-22.27C2732.49,1088.27,2721.35,1047.56,2871.31,1042.66Z" transform="translate(-116.82 -273.67)"/><path class="cls-13" d="M2708.15,1103.2s-24.66,18.24-26.38,50.83l4.48.4s7.88-33.7,22.11-46.87S2708.15,1103.2,2708.15,1103.2Z" transform="translate(-116.82 -273.67)"/><path class="cls-12" d="M2637.67,1059.81s33.38-18.69,17.8-44.07c0,0-12.46-15.58-25.82-19.58,0,0,7.13,37.83,0,38.72s-4.89-42.73-4.89-42.73-35.17-16.92-49-15.58c0,0,21.81,36.95,14.69,36.06s-31.61-38.29-31.61-38.29S2522.81,967.66,2517,989s3.56,32.05,8.9,33.39,39.62.89,38.73,5.34-24,11.58-36.95,7.57c0,0,14.25,35.17,32.94,33.39s24.49-13.36,36.06-14.25,20,2.23,14.25,5.34-25.38,1-34.73,9-16.91,12.85.45,16.41,48.52,1.33,54.75-12Z" transform="translate(-116.82 -273.67)"/><path class="cls-13" d="M2533.5,995.71s93.48,30.27,104.17,64.1c0,0-.45,15.14,8.9,32.5V1099s-9.79-22.7-15.14-25.82C2631.43,1073.17,2652.36,1043.79,2533.5,995.71Z" transform="translate(-116.82 -273.67)"/><path class="cls-13" d="M2646.57,1092.31s14.42,21.89,6.2,48.54l-3.71-1s3.6-29.36-3.94-44.12S2646.57,1092.31,2646.57,1092.31Z" transform="translate(-116.82 -273.67)"/><path class="cls-12" d="M2702.89,992.53s-61.11-34.22-32.59-80.66c0,0,22.81-28.52,47.26-35.85,0,0-13,69.25,0,70.88s9-78.21,9-78.21,64.37-31,89.62-28.52c0,0-39.92,67.63-26.88,66s57.84-70.07,57.84-70.07,66-12.22,76.59,26.88-6.52,58.67-16.29,61.11-72.52,1.63-70.89,9.78,44,21.18,67.63,13.85c0,0-26.07,64.37-60.29,61.11s-44.82-24.45-66-26.08-36.66,4.08-26.07,9.78,46.44,1.87,63.55,16.42,31,23.51-.82,30-88.8,2.45-100.21-22Z" transform="translate(-116.82 -273.67)"/><path class="cls-13" d="M2893.55,875.21s-171.1,55.4-190.66,117.32c0,0,.82,27.7-16.29,59.48v12.22s17.92-41.55,27.7-47.26C2714.3,1017,2676,963.2,2893.55,875.21Z" transform="translate(-116.82 -273.67)"/><path class="cls-13" d="M2686.6,1052s-26.39,40.07-11.35,88.84L2682,1139s-6.59-53.72,7.22-80.74S2686.6,1052,2686.6,1052Z" transform="translate(-116.82 -273.67)"/><path class="cls-11" d="M2820.53,1126.93a119.7,119.7,0,1,1-239.4,0Z" transform="translate(-116.82 -273.67)"/><path class="cls-4" d="M2741.74,1126.93c0,44.85-10.74,90.52-47.25,111-6.07,3.41-26.39-.28-33,2a119.75,119.75,0,0,1-80.31-113.06Z" transform="translate(-116.82 -273.67)"/><path class="cls-11" d="M2822.18,1252.72h-242.7a14.75,14.75,0,0,1,14.77-14.77h213.17A14.76,14.76,0,0,1,2822.18,1252.72Z" transform="translate(-116.82 -273.67)"/><path class="cls-4" d="M2708.47,1252.72h-129a14.75,14.75,0,0,1,14.77-14.77h99.45A14.77,14.77,0,0,1,2708.47,1252.72Z" transform="translate(-116.82 -273.67)"/><rect class="cls-41" x="2460.38" y="853.25" width="246.06" height="3.67"/><circle class="cls-33" cx="1540.15" cy="411.34" r="37.62" transform="translate(43.42 935.85) rotate(-45)"/><path class="cls-42" d="M1548.49,275.12v61.31c0,5-.14,9.75-.29,14.19v.09c-.43,10-1.29,18.39-2.42,23.43-.73,3.28-1.57,5.15-2.49,5.15h-.71c-.9,0-1.73-2-2.47-5.57A152,152,0,0,1,1538,354v0c0-1.13-.14-2.27-.14-3.41v-.37c-.15-4.29-.29-8.89-.29-13.77V274.51C1541.22,274.69,1544.87,274.9,1548.49,275.12Z" transform="translate(-116.82 -273.67)"/><path class="cls-43" d="M1540.15,350.15c-39.87,0-72.19,34.18-72.19,76.34h144.38C1612.34,384.33,1580,350.15,1540.15,350.15Z" transform="translate(-116.82 -273.67)"/><path class="cls-44" d="M1545.9,351.08a29.81,29.81,0,0,0-6.34-.69c-26,0-47,34.07-47,76.1h12.68C1505.2,387.94,1522.92,356.09,1545.9,351.08Z" transform="translate(-116.82 -273.67)"/></svg>